.
 
http://www.torrenting.com          :     Once & For all ;)


               www . Torrenting . Com 

(((((((((((((= Enjoy No RAR releases =))))))))))))))))))))


...................................NFO:....................................

.ooooo oooo   oooo oooooooo8 oooooooooo  o88   oooooooooo       o      ooooo       
 888   8888o  88 888         888    888 oooo   888    888     888      888        
 888   88 888o88  888oooooo  888oooo88   888   888oooo88     8  88     888        
 888   88   8888         888 888         888   888  88o     8oooo88    888      o 
o888o o88o    88 o88oooo888 o888o       o888o o888o  88o8 o88o  o888o o888ooooo88 

 
TITLE: 

The Twilight Saga Breaking Dawn Part 1 2011 TS NEW FULL LINE XViD - INSPiRAL

IMDB: 

www.imdb.com/title/tt1324999/


SOURCES:

VIDEO - TNZ 720p
AUDIO - RiPLEGENDZ
SUBS - OWN

STATS:

Video
ID                               : 0
Format                           : MPEG-4 Visual
Format profile                   : Advanced Simple@L5
Format settings, BVOP            : 2
Format settings, QPel            : No
Format settings, GMC             : No warppoints
Format settings, Matrix          : Default (H.263)
Muxing mode                      : Packed bitstream
Codec ID                         : XVID
Codec ID/Hint                    : XviD
Duration                         : 1h 47mn
Bit rate                         : 1 713 Kbps
Width                            : 720 pixels
Height                           : 304 pixels
Display aspect ratio             : 2.35:1
Frame rate                       : 25.000 fps
Color space                      : YUV
Chroma subsampling               : 4:2:0
Bit depth                        : 8 bits
Scan type                        : Progressive
Compression mode                 : Lossy
Bits/(Pixel*Frame)               : 0.313
Stream size                      : 1.28 GiB (93%)
Writing library                  : XviD 64

Audio
ID                               : 1
Format                           : MPEG Audio
Format version                   : Version 1
Format profile                   : Layer 3
Codec ID                         : 55
Codec ID/Hint                    : MP3
Duration                         : 1h 47mn
Bit rate mode                    : Constant
Bit rate                         : 128 Kbps
Channel(s)                       : 2 channels
Sampling rate                    : 44.1 KHz
Compression mode                 : Lossy
Stream size                      : 98.0 MiB (7%)
Alignment                        : Split accross interleaves
Interleave, duration             : 40 ms (1.00 video frame)
Interleave, preload duration     : 500 ms


NOTES:

Our first release and boy what a nice way too start .
We used the TNZ 720p avi file and gave it some TLC,then hardcoded some subs we made for
the non english parts.
Audio we had to sync,filter and mux to our rip .....now enjoy a release with FULL line audio.


SCREENS:

[IMG]http://i.imgur.com/LakWE.png[/IMG]
[IMG]http://i.imgur.com/PnwGQ.png[/IMG]
[IMG]http://i.imgur.com/sehYb.png[/IMG]
[IMG]http://i.imgur.com/EbhrR.png[/IMG]
[IMG]http://i.imgur.com/jmD9B.png[/IMG]
[IMG]http://i.imgur.com/sIFBH.png[/IMG]


GREETZ: 

Past,Present and Future